<svg width="121" height="59" viewBox="0 0 121 59" fill="none" xmlns="http://www.w3.org/2000/svg">
<g clip-path="url(#clip0_2138_194)">
<path d="M11.6875 59C14.6215 59 17 55.6981 17 51.625C17 47.5519 14.6215 44.25 11.6875 44.25C8.75349 44.25 6.375 47.5519 6.375 51.625C6.375 55.6981 8.75349 59 11.6875 59Z" fill="black"/>
<path d="M39.3125 59C42.2465 59 44.625 55.6981 44.625 51.625C44.625 47.5519 42.2465 44.25 39.3125 44.25C36.3785 44.25 34 47.5519 34 51.625C34 55.6981 36.3785 59 39.3125 59Z" fill="black"/>
<path d="M44.625 0H6.375C2.85418 0 0 2.8302 0 6.32143V44.25C0 47.7412 2.85418 50.5714 6.375 50.5714H44.625C48.1458 50.5714 51 47.7412 51 44.25V6.32143C51 2.8302 48.1458 0 44.625 0Z" fill="black"/>
<path d="M42.5 6.32141H8.5C4.97918 6.32141 2.125 9.15161 2.125 12.6428V25.2857C2.125 28.7769 4.97918 31.6071 8.5 31.6071H42.5C46.0208 31.6071 48.875 28.7769 48.875 25.2857V12.6428C48.875 9.15161 46.0208 6.32141 42.5 6.32141Z" fill="white"/>
<path d="M11.6875 37.9286H9.5625C7.80209 37.9286 6.375 39.3437 6.375 41.0893C6.375 42.8349 7.80209 44.25 9.5625 44.25H11.6875C13.4479 44.25 14.875 42.8349 14.875 41.0893C14.875 39.3437 13.4479 37.9286 11.6875 37.9286Z" fill="white"/>
<path d="M41.4375 37.9286H39.3125C37.5521 37.9286 36.125 39.3437 36.125 41.0893C36.125 42.8349 37.5521 44.25 39.3125 44.25H41.4375C43.1979 44.25 44.625 42.8349 44.625 41.0893C44.625 39.3437 43.1979 37.9286 41.4375 37.9286Z" fill="white"/>
</g>
<path d="M63.9419 15.008C63.9419 15.104 63.9419 16.32 63.9419 16.32C63.9419 18.144 62.1979 18.144 62.1179 18.144C62.0699 18.144 60.4059 18.16 60.4059 16.336V6.288C60.4059 4.448 62.1019 4.464 62.1499 4.464C62.2939 4.464 63.8459 4.432 63.8619 6.352C63.8619 7.184 63.8939 8.32 63.7019 8.56L62.2779 9.184C62.5019 8.88 62.4859 8.64 62.4859 7.568C62.4859 6.992 62.4859 6.176 62.4859 5.952C62.4859 5.76 62.5179 5.28 62.1179 5.28C61.7339 5.28 61.7979 5.632 61.7979 5.936V16.656C61.7979 16.96 61.7979 17.328 62.1339 17.328C62.5179 17.328 62.5339 16.992 62.5339 16.64V14.016C62.5339 13.504 62.3739 13.136 62.2779 12.976L63.9099 13.68C63.9099 13.68 63.9419 14.496 63.9419 15.008ZM66.1923 7.456L66.0323 14.368H66.4483L66.3043 7.456C66.3043 7.344 66.1923 7.344 66.1923 7.456ZM65.8083 16.96C65.7603 17.44 65.7283 17.728 66.1123 17.904V18H64.4323V17.904C64.8643 17.776 64.8483 17.088 64.8483 17.04L65.6963 4.576H67.0083L68.0003 16.96C68.0643 17.616 68.2243 17.808 68.5283 17.904V18H66.4003V17.904C66.7203 17.744 66.7843 17.616 66.7363 17.04L66.5443 15.232H65.9203L65.8083 16.96ZM70.8523 10.176C71.3803 10.176 71.5563 10.048 71.5563 9.552V6.144C71.5563 5.488 71.4763 5.488 70.8523 5.488V10.176ZM72.2123 18H73.0123H71.8123C71.5403 17.776 71.5403 17.36 71.5403 16.752V11.936C71.5403 11.12 71.3963 10.976 70.8523 10.976V17.04C70.8523 17.536 70.8043 17.728 71.1723 17.904V18H70.1483H69.1403V17.904C69.5243 17.712 69.4763 17.552 69.4763 17.04V5.536C69.4763 5.024 69.5243 4.864 69.1403 4.672V4.576H71.4923C72.7243 4.576 72.9323 5.52 72.9323 6.016V8.832C72.9323 9.648 73.0123 10.416 72.0523 10.688C73.0283 10.832 72.9163 11.936 72.9163 12.816V17.04C72.9163 17.536 72.8683 17.728 73.2523 17.904V18H72.2123ZM75.6611 7.456L75.5011 14.368H75.9171L75.7731 7.456C75.7731 7.344 75.6611 7.344 75.6611 7.456ZM75.2771 16.96C75.2291 17.44 75.1971 17.728 75.5811 17.904V18H73.9011V17.904C74.3331 17.776 74.3171 17.088 74.3171 17.04L75.1651 4.576H76.4771L77.4691 16.96C77.5331 17.616 77.6931 17.808 77.9971 17.904V18H75.8691V17.904C76.1891 17.744 76.2531 17.616 76.2051 17.04L76.0131 15.232H75.3891L75.2771 16.96ZM77.5878 4.576H79.6358V4.672C79.3638 4.8 79.2998 4.896 79.3158 5.472C79.3158 5.472 79.5718 10.976 79.6998 14.24H79.7318C79.8918 11.008 80.1318 5.472 80.1318 5.472C80.1638 5.024 80.1318 4.816 79.8438 4.672V4.576H81.5878C81.5878 4.576 81.5878 4.528 81.5878 4.672C81.2838 4.752 81.1558 4.944 81.1238 5.504L80.1158 18H78.9638L78.0198 5.536C77.9718 5.104 77.9078 4.72 77.5878 4.672C77.5878 4.672 77.5878 4.736 77.5878 4.576ZM82.9892 7.456L82.8292 14.368H83.2452L83.1012 7.456C83.1012 7.344 82.9892 7.344 82.9892 7.456ZM82.6052 16.96C82.5572 17.44 82.5252 17.728 82.9092 17.904V18H81.2292V17.904C81.6612 17.776 81.6452 17.088 81.6452 17.04L82.4932 4.576H83.8052L84.7972 16.96C84.8612 17.616 85.0212 17.808 85.3252 17.904V18H83.1972V17.904C83.5172 17.744 83.5812 17.616 83.5332 17.04L83.3412 15.232H82.7172L82.6052 16.96ZM89.5532 18H88.5452C88.5452 18 87.8252 14.576 87.5692 12.352C87.3612 10.528 87.2012 7.616 87.2012 7.616H87.1212C87.1212 7.616 87.2652 10.592 87.2812 12.48C87.2972 14.24 87.2812 17.04 87.2812 17.04C87.2812 17.536 87.2332 17.728 87.6172 17.904V18H86.0012V17.904C86.3852 17.712 86.3212 17.552 86.3212 17.04V5.536C86.3212 5.024 86.3852 4.864 86.0012 4.672V4.576H87.6172C87.6172 4.576 88.1452 7.696 88.3372 9.696C88.5132 11.456 88.7212 14.256 88.7212 14.256H88.7852C88.7372 12.48 88.6252 11.456 88.5932 9.696C88.5772 8.096 88.5932 5.536 88.5932 5.536C88.5932 5.024 88.6412 4.864 88.2732 4.672V4.576H89.8732V4.672C89.5052 4.864 89.5532 5.024 89.5532 5.536V18ZM92.2861 7.456L92.1261 14.368H92.5421L92.3981 7.456C92.3981 7.344 92.2861 7.344 92.2861 7.456ZM91.9021 16.96C91.8541 17.44 91.8221 17.728 92.2061 17.904V18H90.5261V17.904C90.9581 17.776 90.9421 17.088 90.9421 17.04L91.7901 4.576H93.1021L94.0941 16.96C94.1581 17.616 94.3181 17.808 94.6221 17.904V18H92.4941V17.904C92.8141 17.744 92.8781 17.616 92.8301 17.04L92.6381 15.232H92.0141L91.9021 16.96ZM74.9926 34.088C75.7926 34.088 75.7126 33.48 75.7126 32.696V23.512C75.7126 22.92 75.8246 22.488 74.9926 22.488V34.088ZM75.7286 21.576C77.2006 21.576 77.0886 23.016 77.0886 24.328V32.12C77.0886 33.736 77.1366 35 75.4086 35H73.2806V34.904C73.6646 34.712 73.6166 34.552 73.6166 34.04V22.536C73.6166 22.024 73.6646 21.864 73.2806 21.672V21.576H75.7286ZM79.3954 24.456L79.2354 31.368H79.6514L79.5074 24.456C79.5074 24.344 79.3954 24.344 79.3954 24.456ZM79.0114 33.96C78.9634 34.44 78.9314 34.728 79.3154 34.904V35H77.6354V34.904C78.0674 34.776 78.0514 34.088 78.0514 34.04L78.8994 21.576H80.2114L81.2034 33.96C81.2674 34.616 81.4274 34.808 81.7314 34.904V35H79.6034V34.904C79.9234 34.744 79.9874 34.616 79.9394 34.04L79.7474 32.232H79.1234L79.0114 33.96ZM59.3211 44.128C59.9771 44.128 60.0411 43.856 60.0411 43.472V40.208C60.0411 39.84 59.9611 39.488 59.3211 39.488V44.128ZM59.3211 51.088C60.1051 51.088 60.0411 50.384 60.0411 50.128V45.84C60.0411 45.216 59.8651 45.072 59.3211 45.072V51.088ZM57.6091 52V51.904C57.9931 51.712 57.9451 51.552 57.9451 51.04V39.536C57.9451 39.024 57.9931 38.864 57.6091 38.672V38.576H59.8651C61.4651 38.576 61.4011 39.808 61.4011 40.656V42.88C61.4011 43.328 61.4971 44.368 60.6971 44.576C61.4971 44.8 61.4011 45.712 61.4011 46.464V49.824C61.4011 50.752 61.4011 52 60.0411 52H57.6091ZM62.2962 40.288C62.2962 38.448 63.9442 38.464 64.0082 38.464C64.0722 38.464 65.6882 38.464 65.6882 40.304V50.32C65.6882 52.144 64.0722 52.144 64.0082 52.144C63.9442 52.144 62.2962 52.16 62.2962 50.336V40.288ZM64.3762 39.68C64.3762 39.472 64.2002 39.28 64.0082 39.28C63.7842 39.28 63.6242 39.44 63.6242 39.648C63.6242 39.84 63.6242 50.768 63.6242 50.96C63.6242 51.168 63.7842 51.328 64.0082 51.328C64.2002 51.328 64.3762 51.152 64.3762 50.928C64.3762 50.736 64.3762 39.888 64.3762 39.68ZM67.8954 41.456L67.7354 48.368H68.1514L68.0074 41.456C68.0074 41.344 67.8954 41.344 67.8954 41.456ZM67.5114 50.96C67.4634 51.44 67.4314 51.728 67.8154 51.904V52H66.1354V51.904C66.5674 51.776 66.5514 51.088 66.5514 51.04L67.3994 38.576H68.7114L69.7034 50.96C69.7674 51.616 69.9274 51.808 70.2314 51.904V52H68.1034V51.904C68.4234 51.744 68.4874 51.616 68.4394 51.04L68.2474 49.232H67.6234L67.5114 50.96ZM73.0566 38.576H75.1046V38.672C74.8326 38.8 74.7686 38.896 74.7846 39.472C74.7846 39.472 75.0406 44.976 75.1686 48.24H75.2006C75.3606 45.008 75.6006 39.472 75.6006 39.472C75.6326 39.024 75.6006 38.816 75.3126 38.672V38.576H77.0566C77.0566 38.576 77.0566 38.528 77.0566 38.672C76.7526 38.752 76.6246 38.944 76.5926 39.504L75.5846 52H74.4326L73.4886 39.536C73.4406 39.104 73.3766 38.72 73.0566 38.672C73.0566 38.672 73.0566 38.736 73.0566 38.576ZM79.4617 51.04C79.4617 51.536 79.4137 51.728 79.7817 51.904V52H77.7497V51.904C78.1337 51.712 78.0857 51.552 78.0857 51.04V39.536C78.0857 39.024 78.1337 38.864 77.7497 38.672V38.576H79.7817V38.672C79.4137 38.848 79.4617 39.04 79.4617 39.536V51.04ZM82.1923 41.456L82.0323 48.368H82.4483L82.3043 41.456C82.3043 41.344 82.1923 41.344 82.1923 41.456ZM81.8083 50.96C81.7603 51.44 81.7283 51.728 82.1123 51.904V52H80.4323V51.904C80.8643 51.776 80.8483 51.088 80.8483 51.04L81.6963 38.576H83.0083L84.0003 50.96C84.0643 51.616 84.2243 51.808 84.5283 51.904V52H82.4003V51.904C82.7203 51.744 82.7843 51.616 82.7363 51.04L82.5443 49.232H81.9203L81.8083 50.96ZM86.3299 50.384C86.3299 50.8 86.3299 51.2 86.6979 51.2C87.0499 51.2 87.0499 50.864 87.0499 50.352V46.176C87.0499 45.584 87.0659 45.408 86.6499 45.28V45.104H88.7459V45.328C88.3459 45.44 88.3779 45.84 88.3779 46.224V50.816C88.3779 51.056 88.3459 51.648 88.5379 51.856L88.1379 52.032C87.9939 51.888 87.8179 51.616 87.7379 51.456C87.2899 52.032 86.6339 52.304 85.9459 52.032C84.8899 51.616 84.9539 50.8 84.9539 49.808C84.9539 49.808 84.9539 42.96 84.9539 42.928V40.288C84.9539 38.432 86.6339 38.464 86.6979 38.464C86.8419 38.464 88.3779 38.432 88.3939 40.352C88.3939 41.184 88.4259 42.32 88.2339 42.56L86.8099 43.184C87.0339 42.88 87.0179 42.64 87.0179 41.568C87.0179 40.992 87.0179 40.176 87.0179 39.952C87.0179 39.76 87.0499 39.28 86.6499 39.28C86.2659 39.28 86.3299 39.632 86.3299 39.936V42.928V50.384ZM89.2653 52V51.904C89.6493 51.712 89.6013 51.552 89.6013 51.04V39.536C89.6013 39.024 89.6493 38.864 89.2653 38.672V38.576H92.7213L93.0253 42.944H92.7533C92.4813 40.896 92.4493 39.392 90.9773 39.392V44.16C91.7133 43.872 91.8733 42.688 91.8893 41.888H92.1613V47.536H91.8413C91.8253 46.768 91.7133 45.456 90.9773 45.088V51.088C92.3693 51.088 92.5933 49.104 92.7853 47.12H93.0573L92.9613 52H89.2653ZM93.9536 38.576H96.0976C96.0976 38.576 96.4656 44.24 96.4816 44.512C96.5936 46.928 96.6736 48.64 96.6736 48.64H96.7216C96.7216 48.64 96.8816 46.32 96.9136 44.496C96.9456 43.984 97.4096 38.576 97.4096 38.576H98.8336H99.5696V38.672C99.1856 38.816 99.2496 39.04 99.2496 39.536V51.04C99.2496 51.536 99.1856 51.728 99.5696 51.904V52H98.5296H97.5376V51.904C97.9216 51.712 97.8576 51.552 97.8576 51.04C97.8576 51.04 97.8576 44.656 97.8576 44.496C97.9536 42.048 98.0976 39.952 98.0976 39.952H98.0656C98.0656 39.952 97.7776 41.92 97.6496 44.496C97.6336 44.784 97.0256 52 97.0256 52H96.0656C96.0656 52 95.4736 44.8 95.4576 44.56C95.3616 42.656 95.1856 39.968 95.1856 39.968H95.1376C95.1376 39.968 95.1696 42.736 95.2336 44.56C95.2336 44.736 95.2336 51.04 95.2336 51.04C95.2336 51.536 95.1856 51.728 95.5536 51.904V52H95.0096H93.9536V51.904C94.3216 51.712 94.2736 51.552 94.2736 51.04V39.536C94.2736 39.024 94.3216 38.864 93.9536 38.672V38.576Z" fill="white"/>
<defs>
<clipPath id="clip0_2138_194">
<rect width="51" height="59" fill="white"/>
</clipPath>
</defs>
</svg>
